<mxfile host="Electron" modified="2024-02-04T21:37:06.010Z" agent="Mozilla/5.0 (Windows NT 10.0; Win64; x64) AppleWebKit/537.36 (KHTML, like Gecko) draw.io/23.0.2 Chrome/120.0.6099.109 Electron/28.1.0 Safari/537.36" etag="Y1isxY73Ygucp_aW8_11" version="23.0.2" type="device">
  <diagram name="Page-1" id="iKtCve9k6sQJAs5jUi-_">
    <mxGraphModel dx="941" dy="644" grid="0" gridSize="10" guides="1" tooltips="1" connect="1" arrows="1" fold="1" page="0" pageScale="1" pageWidth="850" pageHeight="1100" math="0" shadow="0">
      <root>
        <mxCell id="0" />
        <mxCell id="1" parent="0" />
        <mxCell id="7oOG9WRXy3WEtp1erewm-1" value="Начало" style="strokeWidth=1;html=1;shape=mxgraph.flowchart.terminator;whiteSpace=wrap;rotation=0;" parent="1" vertex="1">
          <mxGeometry x="290" y="167.5" width="212.5" height="45" as="geometry" />
        </mxCell>
        <mxCell id="7oOG9WRXy3WEtp1erewm-2" value="Цикл i = 0; i &amp;lt; arr.size &amp;amp;&amp;amp; flag == 0; ++i" style="shape=loopLimit;whiteSpace=wrap;html=1;rotation=0;" parent="1" vertex="1">
          <mxGeometry x="290" y="368" width="212.5" height="45" as="geometry" />
        </mxCell>
        <mxCell id="7oOG9WRXy3WEtp1erewm-8" value="" style="endArrow=classic;html=1;rounded=0;fontFamily=Helvetica;fontSize=12;fontColor=default;exitX=0.5;exitY=1;exitDx=0;exitDy=0;exitPerimeter=0;entryX=0.5;entryY=0;entryDx=0;entryDy=0;" parent="1" source="7oOG9WRXy3WEtp1erewm-1" target="7oOG9WRXy3WEtp1erewm-33" edge="1">
          <mxGeometry width="50" height="50" relative="1" as="geometry">
            <mxPoint x="700" y="470" as="sourcePoint" />
            <mxPoint x="396.25" y="238" as="targetPoint" />
          </mxGeometry>
        </mxCell>
        <mxCell id="7oOG9WRXy3WEtp1erewm-12" value="" style="strokeWidth=1;html=1;shape=mxgraph.flowchart.annotation_2;align=left;labelPosition=right;pointerEvents=1;" parent="1" vertex="1">
          <mxGeometry x="529" y="140" width="50" height="100" as="geometry" />
        </mxCell>
        <mxCell id="7oOG9WRXy3WEtp1erewm-13" value="" style="endArrow=none;dashed=1;html=1;rounded=0;exitX=1;exitY=0.5;exitDx=0;exitDy=0;exitPerimeter=0;entryX=0;entryY=0.5;entryDx=0;entryDy=0;entryPerimeter=0;" parent="1" source="7oOG9WRXy3WEtp1erewm-1" target="7oOG9WRXy3WEtp1erewm-12" edge="1">
          <mxGeometry width="50" height="50" relative="1" as="geometry">
            <mxPoint x="739" y="528" as="sourcePoint" />
            <mxPoint x="789" y="478" as="targetPoint" />
          </mxGeometry>
        </mxCell>
        <mxCell id="7oOG9WRXy3WEtp1erewm-14" value="Стандартный алгоритм поиска" style="text;html=1;strokeColor=none;fillColor=none;align=center;verticalAlign=middle;whiteSpace=wrap;rounded=0;" parent="1" vertex="1">
          <mxGeometry x="564" y="151" width="121" height="30" as="geometry" />
        </mxCell>
        <mxCell id="7oOG9WRXy3WEtp1erewm-15" value="Вход: массив arr, значение элемента target&lt;br&gt;Выход: индекс элемента массива result" style="text;html=1;strokeColor=none;fillColor=none;align=center;verticalAlign=middle;whiteSpace=wrap;rounded=0;" parent="1" vertex="1">
          <mxGeometry x="560" y="194" width="153" height="30" as="geometry" />
        </mxCell>
        <mxCell id="7oOG9WRXy3WEtp1erewm-25" value="Конец" style="strokeWidth=1;html=1;shape=mxgraph.flowchart.terminator;whiteSpace=wrap;rotation=0;" parent="1" vertex="1">
          <mxGeometry x="290" y="780" width="212.5" height="45" as="geometry" />
        </mxCell>
        <mxCell id="7oOG9WRXy3WEtp1erewm-32" value="arr[i] == target" style="rhombus;whiteSpace=wrap;html=1;rotation=0;" parent="1" vertex="1">
          <mxGeometry x="290" y="438" width="212.5" height="45" as="geometry" />
        </mxCell>
        <mxCell id="7oOG9WRXy3WEtp1erewm-33" value="flag = 0" style="rounded=0;whiteSpace=wrap;html=1;rotation=0;" parent="1" vertex="1">
          <mxGeometry x="290" y="233" width="212.5" height="45" as="geometry" />
        </mxCell>
        <mxCell id="7oOG9WRXy3WEtp1erewm-34" value="result = -1" style="rounded=0;whiteSpace=wrap;html=1;rotation=0;" parent="1" vertex="1">
          <mxGeometry x="290" y="299" width="212.5" height="45" as="geometry" />
        </mxCell>
        <mxCell id="7oOG9WRXy3WEtp1erewm-35" value="result = i" style="rounded=0;whiteSpace=wrap;html=1;rotation=0;" parent="1" vertex="1">
          <mxGeometry x="458" y="487" width="212.5" height="45" as="geometry" />
        </mxCell>
        <mxCell id="7oOG9WRXy3WEtp1erewm-36" value="Конец цикла по i" style="shape=loopLimit;whiteSpace=wrap;html=1;strokeColor=default;fontFamily=Helvetica;fontSize=12;fontColor=default;fillColor=default;rotation=0;direction=west;" parent="1" vertex="1">
          <mxGeometry x="290" y="640" width="212.5" height="45" as="geometry" />
        </mxCell>
        <mxCell id="7oOG9WRXy3WEtp1erewm-38" value="Вернуть result" style="rounded=0;whiteSpace=wrap;html=1;rotation=0;" parent="1" vertex="1">
          <mxGeometry x="290" y="710" width="212.5" height="45" as="geometry" />
        </mxCell>
        <mxCell id="7oOG9WRXy3WEtp1erewm-39" value="" style="endArrow=classic;html=1;rounded=0;entryX=0.5;entryY=0;entryDx=0;entryDy=0;exitX=0.5;exitY=1;exitDx=0;exitDy=0;" parent="1" source="7oOG9WRXy3WEtp1erewm-33" target="7oOG9WRXy3WEtp1erewm-34" edge="1">
          <mxGeometry width="50" height="50" relative="1" as="geometry">
            <mxPoint x="530" y="443" as="sourcePoint" />
            <mxPoint x="580" y="393" as="targetPoint" />
          </mxGeometry>
        </mxCell>
        <mxCell id="7oOG9WRXy3WEtp1erewm-41" value="" style="endArrow=classic;html=1;rounded=0;entryX=0.5;entryY=0;entryDx=0;entryDy=0;exitX=0.5;exitY=1;exitDx=0;exitDy=0;" parent="1" source="7oOG9WRXy3WEtp1erewm-2" target="7oOG9WRXy3WEtp1erewm-32" edge="1">
          <mxGeometry width="50" height="50" relative="1" as="geometry">
            <mxPoint x="530" y="443" as="sourcePoint" />
            <mxPoint x="580" y="393" as="targetPoint" />
          </mxGeometry>
        </mxCell>
        <mxCell id="7oOG9WRXy3WEtp1erewm-42" value="" style="endArrow=classic;html=1;rounded=0;entryX=0.5;entryY=0;entryDx=0;entryDy=0;exitX=1;exitY=0.5;exitDx=0;exitDy=0;edgeStyle=orthogonalEdgeStyle;" parent="1" source="7oOG9WRXy3WEtp1erewm-32" target="7oOG9WRXy3WEtp1erewm-35" edge="1">
          <mxGeometry width="50" height="50" relative="1" as="geometry">
            <mxPoint x="530" y="443" as="sourcePoint" />
            <mxPoint x="580" y="393" as="targetPoint" />
          </mxGeometry>
        </mxCell>
        <mxCell id="7oOG9WRXy3WEtp1erewm-43" value="Да" style="text;html=1;strokeColor=none;fillColor=none;align=center;verticalAlign=middle;whiteSpace=wrap;rounded=0;" parent="1" vertex="1">
          <mxGeometry x="502.5" y="424" width="60" height="30" as="geometry" />
        </mxCell>
        <mxCell id="7oOG9WRXy3WEtp1erewm-45" value="" style="endArrow=classic;html=1;rounded=0;entryX=0.5;entryY=1;entryDx=0;entryDy=0;" parent="1" target="7oOG9WRXy3WEtp1erewm-36" edge="1">
          <mxGeometry width="50" height="50" relative="1" as="geometry">
            <mxPoint x="396" y="611" as="sourcePoint" />
            <mxPoint x="578" y="598" as="targetPoint" />
          </mxGeometry>
        </mxCell>
        <mxCell id="7oOG9WRXy3WEtp1erewm-49" value="flag = 1" style="rounded=0;whiteSpace=wrap;html=1;rotation=0;" parent="1" vertex="1">
          <mxGeometry x="458" y="556" width="212.5" height="45" as="geometry" />
        </mxCell>
        <mxCell id="7oOG9WRXy3WEtp1erewm-50" value="" style="endArrow=classic;html=1;rounded=0;entryX=0.5;entryY=0;entryDx=0;entryDy=0;exitX=0.5;exitY=1;exitDx=0;exitDy=0;" parent="1" source="7oOG9WRXy3WEtp1erewm-35" target="7oOG9WRXy3WEtp1erewm-49" edge="1">
          <mxGeometry width="50" height="50" relative="1" as="geometry">
            <mxPoint x="511" y="700" as="sourcePoint" />
            <mxPoint x="561" y="650" as="targetPoint" />
          </mxGeometry>
        </mxCell>
        <mxCell id="7oOG9WRXy3WEtp1erewm-52" value="" style="endArrow=none;html=1;rounded=0;entryX=0.5;entryY=1;entryDx=0;entryDy=0;exitX=0;exitY=0.5;exitDx=0;exitDy=0;edgeStyle=orthogonalEdgeStyle;" parent="1" source="7oOG9WRXy3WEtp1erewm-32" target="7oOG9WRXy3WEtp1erewm-49" edge="1">
          <mxGeometry width="50" height="50" relative="1" as="geometry">
            <mxPoint x="511" y="700" as="sourcePoint" />
            <mxPoint x="561" y="650" as="targetPoint" />
            <Array as="points">
              <mxPoint x="237" y="461" />
              <mxPoint x="237" y="611" />
              <mxPoint x="564" y="611" />
            </Array>
          </mxGeometry>
        </mxCell>
        <mxCell id="7oOG9WRXy3WEtp1erewm-53" value="" style="endArrow=classic;html=1;rounded=0;entryX=0.5;entryY=0;entryDx=0;entryDy=0;exitX=0.5;exitY=0;exitDx=0;exitDy=0;" parent="1" source="7oOG9WRXy3WEtp1erewm-36" target="7oOG9WRXy3WEtp1erewm-38" edge="1">
          <mxGeometry width="50" height="50" relative="1" as="geometry">
            <mxPoint x="485" y="592" as="sourcePoint" />
            <mxPoint x="535" y="542" as="targetPoint" />
          </mxGeometry>
        </mxCell>
        <mxCell id="7oOG9WRXy3WEtp1erewm-54" value="" style="endArrow=classic;html=1;rounded=0;entryX=0.5;entryY=0;entryDx=0;entryDy=0;entryPerimeter=0;exitX=0.5;exitY=1;exitDx=0;exitDy=0;" parent="1" source="7oOG9WRXy3WEtp1erewm-38" target="7oOG9WRXy3WEtp1erewm-25" edge="1">
          <mxGeometry width="50" height="50" relative="1" as="geometry">
            <mxPoint x="485" y="696" as="sourcePoint" />
            <mxPoint x="535" y="646" as="targetPoint" />
          </mxGeometry>
        </mxCell>
        <mxCell id="DyCe1wx-iYOWz2P4Pcd9-1" value="" style="endArrow=classic;html=1;rounded=0;exitX=0.5;exitY=1;exitDx=0;exitDy=0;entryX=0.5;entryY=0;entryDx=0;entryDy=0;" edge="1" parent="1" source="7oOG9WRXy3WEtp1erewm-34" target="7oOG9WRXy3WEtp1erewm-2">
          <mxGeometry width="50" height="50" relative="1" as="geometry">
            <mxPoint x="450" y="478" as="sourcePoint" />
            <mxPoint x="500" y="428" as="targetPoint" />
          </mxGeometry>
        </mxCell>
      </root>
    </mxGraphModel>
  </diagram>
</mxfile>
